# xmcd CD database file
#
# Track frame offsets:
#	150
#	14582
#	28372
#	39700
#	50530
#	62122
#	75220
#	87342
#	97535
#	112362
#	123650
#	132257
#
# Disc length: 1919 seconds
#
# Revision: 0
# Processed by: cddbd v1.5.2PL0 Copyright (c) Steve Scherf et al.
# Submitted via: CDex 1.70beta2
#
DISCID=a1077d0c
DTITLE=Johnny Ray - On The Trail
DYEAR=1992
DGENRE=Country
TTITLE0=Wagon Wheels
TTITLE1=Empty Saddles
TTITLE2=Tumblin' Tumble WEeeds
TTITLE3=The Last Round Up
TTITLE4=Bury Me Out On The Lone Praire
TTITLE5=Home On The Range
TTITLE6=When It's Spring Time In Alaska
TTITLE7=Ridin' Home
TTITLE8=Twilight On The Trail
TTITLE9=Red River Valley
TTITLE10=I'm An Old Cowhand
TTITLE11=Coolwater
EXTD=YEAR: 1992
EXTT0=
EXTT1=
EXTT2=
EXTT3=
EXTT4=
EXTT5=
EXTT6=
EXTT7=
EXTT8=
EXTT9=
EXTT10=
EXTT11=
PLAYORDER=
